<?xml version="1.0" standalone="no"?>
<!DOCTYPE svg PUBLIC "-//W3C//DTD SVG 20010904//EN"
 "http://www.w3.org/TR/2001/REC-SVG-20010904/DTD/svg10.dtd">
<svg version="1.0" xmlns="http://www.w3.org/2000/svg"
 width="512.000000pt" height="512.000000pt" viewBox="0 0 512.000000 512.000000"
 preserveAspectRatio="xMidYMid meet">

<g transform="translate(0.000000,512.000000) scale(0.100000,-0.100000)"
fill="#000000" stroke="none">
<path d="M558 5101 c-31 -10 -72 -28 -91 -40 -52 -32 -116 -106 -145 -169
l-27 -57 0 -2090 0 -2090 28 -56 c57 -117 157 -195 282 -219 41 -7 192 -10
473 -8 l414 3 19 24 c26 32 24 73 -4 99 -23 22 -26 22 -433 22 -445 0 -481 3
-547 54 -20 15 -47 51 -62 79 l-25 51 0 2040 c0 2033 1 2041 21 2086 25 56 53
86 104 113 l40 22 1173 3 1172 2 0 -238 c0 -131 5 -265 11 -298 29 -159 153
-283 314 -313 32 -6 166 -11 297 -11 l238 0 0 -659 c0 -363 3 -667 6 -676 18
-47 109 -48 133 -2 9 16 11 198 9 712 l-3 690 -28 55 c-41 79 -789 825 -862
861 l-50 24 -1200 2 c-1136 2 -1203 1 -1257 -16z m3132 -834 c0 -5 -91 -7
-203 -6 -194 4 -205 5 -252 30 -62 32 -110 93 -124 159 -6 28 -11 133 -11 233
l0 182 295 -295 c162 -162 295 -299 295 -303z"/>
<path d="M841 4234 c-27 -35 -26 -57 3 -91 l24 -28 629 -3 c436 -2 636 1 654
8 25 11 49 47 49 74 0 7 -9 25 -21 40 l-20 26 -649 0 -649 0 -20 -26z"/>
<path d="M845 3715 c-14 -13 -25 -31 -25 -40 0 -29 29 -72 52 -79 13 -3 579
-6 1259 -6 1236 0 1236 0 1263 21 33 26 36 79 6 109 -20 20 -33 20 -1275 20
l-1256 0 -24 -25z"/>
<path d="M851 3263 c-11 -10 -24 -32 -27 -50 -5 -26 -1 -37 19 -57 l26 -26
1256 0 c1242 0 1255 0 1275 20 30 30 27 83 -6 109 -27 21 -27 21 -1274 21
-1174 0 -1249 -1 -1269 -17z"/>
<path d="M1595 2568 c-36 -21 -74 -80 -372 -583 -183 -308 -337 -577 -343
-597 -25 -90 23 -157 175 -242 141 -80 220 -91 323 -46 37 17 72 18 72 3 0 -2
-20 -32 -44 -66 -52 -75 -66 -113 -66 -185 0 -132 113 -242 247 -242 37 0 41
-2 51 -38 15 -50 74 -117 125 -143 22 -12 66 -24 98 -26 55 -5 57 -7 68 -42
15 -51 72 -115 126 -141 46 -22 116 -30 175 -18 33 7 36 5 65 -39 45 -69 120
-108 205 -107 67 0 106 14 167 60 l31 24 101 -60 c112 -67 171 -86 236 -76 93
12 182 85 206 168 7 24 13 44 14 46 1 1 18 -5 38 -13 46 -19 137 -19 182 -1
19 8 50 26 68 40 39 30 87 112 87 148 0 24 3 25 58 24 31 0 74 6 96 13 71 24
141 104 159 182 7 26 8 26 52 16 61 -14 143 5 197 46 94 72 126 209 73 312
-13 27 -22 52 -19 57 3 5 24 18 46 29 37 19 47 20 98 10 80 -16 147 -1 244 56
129 74 162 100 180 137 20 42 21 108 2 144 -50 96 -652 1102 -673 1124 -33 35
-84 52 -134 45 -53 -7 -237 -117 -287 -171 -56 -61 -75 -118 -70 -211 3 -72 2
-76 -20 -82 -45 -11 -118 4 -227 47 -157 61 -199 62 -397 11 l-156 -41 -79 38
c-73 35 -84 37 -173 37 -89 0 -102 -3 -218 -48 -144 -55 -191 -59 -268 -23
l-51 24 -5 68 c-9 126 -54 186 -211 281 -132 80 -184 90 -252 51z m181 -185
c109 -65 140 -106 131 -175 -6 -43 -511 -907 -553 -945 -34 -31 -86 -44 -129
-32 -19 6 -73 33 -120 61 -78 47 -84 52 -73 72 21 39 620 1051 631 1064 5 6
11 12 14 12 2 0 47 -25 99 -57z m2579 -479 c175 -294 318 -543 319 -551 1 -19
-140 -108 -194 -123 -47 -13 -99 2 -132 37 -15 16 -81 120 -147 233 -67 113
-129 211 -138 218 -25 18 -70 15 -93 -8 -38 -38 -27 -70 100 -284 66 -112 122
-209 125 -218 4 -10 -10 -24 -44 -45 l-49 -31 -253 150 c-640 379 -793 468
-809 468 -30 0 -70 -39 -70 -68 0 -40 -20 -104 -42 -135 -24 -34 -87 -67 -128
-67 l-32 0 4 193 c5 283 13 294 260 358 84 21 165 39 180 39 16 0 54 -10 86
-21 225 -85 286 -95 385 -65 l47 14 30 -49 c33 -54 67 -74 103 -60 67 26 65
72 -6 192 -94 157 -80 213 78 306 50 29 93 53 96 53 4 0 150 -241 324 -536z
m-1680 154 c14 -6 24 -14 22 -17 -1 -3 -18 -37 -37 -76 l-35 -70 0 -232 c0
-258 0 -259 76 -311 30 -21 43 -23 109 -20 117 7 204 62 262 165 29 51 32 53
52 40 11 -8 233 -139 491 -291 259 -153 482 -291 498 -307 37 -40 37 -88 -2
-131 -54 -61 -63 -57 -454 175 -216 128 -358 207 -374 207 -59 0 -94 -74 -55
-118 9 -11 130 -87 267 -168 138 -81 260 -156 272 -167 45 -41 39 -120 -13
-153 -53 -35 -75 -26 -354 140 -146 86 -275 159 -288 163 -29 7 -70 -20 -78
-54 -14 -54 2 -69 216 -196 176 -104 208 -127 223 -159 16 -33 16 -40 4 -71
-8 -19 -25 -42 -38 -51 -46 -32 -77 -21 -272 94 -102 60 -197 112 -211 116
-38 9 -91 -45 -81 -84 9 -38 17 -46 107 -98 91 -54 114 -75 121 -112 12 -65
-52 -131 -115 -118 -33 7 -198 103 -198 115 0 5 7 25 15 44 18 44 19 115 3
169 -17 58 -90 134 -147 155 l-47 16 9 44 c7 30 7 59 -2 97 -24 109 -110 184
-224 195 l-60 6 -14 42 c-8 23 -31 59 -52 80 -55 58 -103 78 -187 78 -63 0
-77 -4 -123 -32 l-52 -33 -31 36 c-17 19 -49 45 -72 56 -55 28 -150 35 -200
14 -47 -19 -65 -20 -72 -3 -3 10 438 773 460 794 2 2 30 -9 62 -24 52 -25 70
-28 159 -28 95 1 105 3 215 47 121 49 193 60 245 36z m-936 -973 c34 -17 56
-65 48 -104 -7 -34 -121 -197 -148 -211 -65 -35 -149 14 -149 88 0 32 12 55
67 131 81 113 115 131 182 96z m425 -76 c46 -51 35 -82 -84 -250 -57 -79 -114
-156 -128 -171 -33 -36 -80 -45 -120 -24 -39 20 -52 44 -52 91 0 32 19 63 120
205 66 92 130 172 143 178 37 19 89 6 121 -29z m278 -198 c26 -23 33 -37 33
-68 0 -34 -16 -62 -123 -211 -74 -104 -131 -173 -144 -178 -66 -20 -121 5
-139 65 -10 35 -9 44 10 76 40 69 223 315 244 330 35 24 82 19 119 -14z m199
-340 c42 -42 39 -84 -10 -157 -58 -87 -85 -109 -133 -109 -33 0 -45 6 -69 33
-42 47 -39 84 13 161 53 80 81 101 130 101 30 0 46 -7 69 -29z"/>
</g>
</svg>
