<?xml version="1.0" encoding="utf-8"?>

<!DOCTYPE svg PUBLIC "-//W3C//DTD SVG 1.1//EN" "http://www.w3.org/Graphics/SVG/1.1/DTD/svg11.dtd">
<!-- Uploaded to: SVG Repo, www.svgrepo.com, Generator: SVG Repo Mixer Tools -->
<svg height="800px" width="800px" version="1.1" id="_x32_" xmlns="http://www.w3.org/2000/svg" xmlns:xlink="http://www.w3.org/1999/xlink" 
	 viewBox="0 0 512 512"  xml:space="preserve">
<style type="text/css">
	.st0{fill:#FFFFFF;}
</style>
<g>
	<path class="st0" d="M0,195.592v44.342h136.663l103.116,68.246l-71.933,47.598c5.932,5.509,10.751,12.184,14.058,19.697
		l204.815-135.541H512v-44.342H0z M261.686,293.672l-81.198-53.738h162.397L261.686,293.672z"/>
	<path class="st0" d="M127.173,357.833c-23.022,0-41.666,18.652-41.674,41.674c0.009,23.022,18.653,41.674,41.674,41.683
		c23.022-0.009,41.675-18.662,41.675-41.683C168.848,376.485,150.195,357.833,127.173,357.833z M143.813,416.156
		c-4.283,4.266-10.112,6.891-16.64,6.891c-6.528,0-12.348-2.626-16.64-6.891c-4.266-4.291-6.883-10.12-6.891-16.649
		c0.008-6.528,2.624-12.349,6.891-16.64c4.292-4.275,10.112-6.891,16.64-6.9c6.529,0.009,12.358,2.625,16.64,6.9
		c4.274,4.291,6.891,10.112,6.891,16.64S148.088,411.865,143.813,416.156z"/>
	<path class="st0" d="M384.827,357.833c-23.031,0-41.675,18.652-41.675,41.674c0,23.022,18.644,41.674,41.675,41.683
		c23.022-0.009,41.674-18.662,41.683-41.683C426.502,376.485,407.849,357.833,384.827,357.833z M401.467,416.156
		c-4.284,4.266-10.12,6.891-16.64,6.891c-6.529,0-12.358-2.626-16.641-6.891c-4.274-4.291-6.89-10.12-6.89-16.649
		s2.616-12.349,6.89-16.64c4.284-4.275,10.112-6.891,16.641-6.9c6.52,0,12.356,2.625,16.64,6.9c4.274,4.291,6.891,10.112,6.9,16.64
		C408.358,406.036,405.742,411.865,401.467,416.156z"/>
	<path class="st0" d="M445.024,177.241c29.386,0,53.203-23.816,53.212-53.211c-0.009-29.395-23.826-53.212-53.212-53.22
		c-29.403,0.009-53.211,23.826-53.22,53.22C391.813,153.425,415.621,177.241,445.024,177.241z M422.788,101.793
		c5.716-5.708,13.505-9.205,22.236-9.205c8.714,0,16.511,3.498,22.228,9.205c5.717,5.726,9.205,13.523,9.214,22.237
		c-0.009,8.712-3.497,16.511-9.214,22.236c-5.717,5.708-13.514,9.205-22.228,9.205c-8.73,0-16.52-3.497-22.236-9.205
		c-5.717-5.725-9.206-13.523-9.214-22.236C413.582,115.316,417.072,107.519,422.788,101.793z"/>
	<path class="st0" d="M63.548,177.241h262.947c29.395,0,53.203-23.816,53.212-53.211c-0.009-29.395-23.817-53.212-53.212-53.22
		H189.927L62.278,91.198C39.092,91.88,20.5,110.826,20.491,134.185C20.5,157.975,39.765,177.241,63.548,177.241z M313.55,92.588
		h12.945c8.714,0,16.511,3.498,22.228,9.205c5.716,5.726,9.205,13.523,9.214,22.237c-0.009,8.712-3.498,16.511-9.214,22.236
		c-5.717,5.708-13.514,9.205-22.228,9.205H313.55V92.588z M218.242,92.588h59.023v62.883h-59.023V92.588z M48.496,119.142
		c3.886-3.876,9.136-6.234,15.052-6.243h0.863l117.545-18.765v61.337H63.548c-5.907,0-11.166-2.366-15.052-6.234
		c-3.868-3.886-6.234-9.136-6.234-15.052C42.262,128.27,44.627,123.028,48.496,119.142z"/>
	<path class="st0" d="M349.197,351.581l-53.815-35.613l-21.917,14.5l59.498,39.368C337.073,362.686,342.609,356.486,349.197,351.581
		z"/>
</g>
</svg>