<?xml version="1.0" encoding="iso-8859-1"?>
<!-- Uploaded to: SVG Repo, www.svgrepo.com, Generator: SVG Repo Mixer Tools -->
<!DOCTYPE svg PUBLIC "-//W3C//DTD SVG 1.1//EN" "http://www.w3.org/Graphics/SVG/1.1/DTD/svg11.dtd">
<svg fill="#FFFFFF" height="800px" width="800px" version="1.1" id="Capa_1" xmlns="http://www.w3.org/2000/svg" xmlns:xlink="http://www.w3.org/1999/xlink" 
	 viewBox="0 0 297 297" xml:space="preserve">
<g>
	<path d="M233.338,127.196c-2.632-6.433-5.912-13.659-8.383-18.716c-7.331-15.004-22.867-24.698-39.578-24.698h-26.844V56.691
		c0-5.541-4.493-10.034-10.034-10.034s-10.034,4.493-10.034,10.034v27.091h-26.844c-16.711,0-32.246,9.695-39.578,24.698
		c-2.471,5.057-5.75,12.283-8.383,18.716c-7.147,17.467-14.526,40.642-17.708,64.174c-1.432,10.594,2.226,20.875,10.037,28.208
		c6.147,5.771,14.244,8.91,22.529,8.909c1.929,0,3.87-0.171,5.798-0.517l54.149-4.474v7.783c0,5.541,4.493,10.034,10.034,10.034
		s10.034-4.493,10.034-10.034v-7.783l54.149,4.474c1.928,0.347,3.868,0.517,5.798,0.517c8.284,0,16.382-3.138,22.529-8.909
		c7.81-7.333,11.468-17.614,10.037-28.208C247.864,167.838,240.485,144.663,233.338,127.196z M70.953,168.396h66.095v3.258
		l-68.742,8.049C69.102,175.857,69.992,172.085,70.953,168.396z M159.953,168.396h66.095c0.961,3.689,1.851,7.461,2.647,11.306
		l-68.742-8.049V168.396z M219.914,148.329h-59.961v-7.354h57.267C218.13,143.357,219.032,145.809,219.914,148.329z
		 M137.047,148.329H77.086c0.882-2.519,1.784-4.971,2.695-7.354h57.267V148.329z M81,208.094c-4.187,0.216-8.216-0.275-11.274-3.145
		c-1.471-1.381-2.554-3.034-3.222-4.834c0.024-0.003,0.048-0.001,0.073-0.004l70.471-8.251v11.618
		C137.047,203.477,95.154,207.365,81,208.094z M215.429,208.094c-16.342-0.897-55.476-4.617-55.476-4.617v-11.618l70.471,8.251
		c0.025,0.003,0.048,0.001,0.073,0.004c-0.668,1.801-1.751,3.453-3.222,4.834C224.217,207.819,219.616,208.324,215.429,208.094z
		 M185.378,103.85c9.1,0,17.558,5.277,21.548,13.442c0.568,1.163,1.148,2.37,1.735,3.616h-48.709V103.85H185.378z M111.622,103.85
		h25.425v17.057H88.339c0.587-1.245,1.167-2.453,1.735-3.616C94.064,109.126,102.522,103.85,111.622,103.85z"/>
	<path d="M32.61,72.745c3.879,0,7.024-3.144,7.024-7.024V39.633h26.088c3.879,0,7.024-3.144,7.024-7.024s-3.144-7.024-7.024-7.024
		H32.61c-3.879,0-7.024,3.144-7.024,7.024v33.111C25.586,69.601,28.731,72.745,32.61,72.745z"/>
	<path d="M231.279,39.633h26.088v26.088c0,3.879,3.144,7.024,7.024,7.024s7.024-3.144,7.024-7.024V32.61
		c0-3.879-3.144-7.024-7.024-7.024h-33.111c-3.879,0-7.024,3.144-7.024,7.024S227.399,39.633,231.279,39.633z"/>
	<path d="M32.61,271.414h33.111c3.879,0,7.024-3.144,7.024-7.024s-3.144-7.024-7.024-7.024H39.633v-26.088
		c0-3.879-3.144-7.024-7.024-7.024s-7.024,3.144-7.024,7.024v33.111C25.586,268.269,28.731,271.414,32.61,271.414z"/>
	<path d="M286.966,0H10.034C4.493,0,0,4.493,0,10.034v276.932C0,292.507,4.493,297,10.034,297h276.932
		c5.541,0,10.034-4.493,10.034-10.034V10.034C297,4.493,292.507,0,286.966,0z M276.932,276.932H20.068V20.068h256.865V276.932z"/>
	<path d="M264.39,224.255c-3.879,0-7.024,3.144-7.024,7.024v26.088h-26.088c-3.879,0-7.024,3.144-7.024,7.024
		s3.144,7.024,7.024,7.024h33.111c3.879,0,7.024-3.144,7.024-7.024v-33.111C271.414,227.399,268.269,224.255,264.39,224.255z"/>
</g>
</svg>